<svg data-v-423bf9ae="" xmlns="http://www.w3.org/2000/svg" viewBox="0 0 290 107" class="iconLeft"><!----><!----><!----><g data-v-423bf9ae="" id="b0eb4e3f-dfde-4c3f-8127-a9063b02825f" fill="#DBA2E0" transform="matrix(5.6980058425006375,0,0,5.6980058425006375,118.76453117096916,2.6480494582612053)"><path d="M0.56 14L4.21 14L4.21 13.37L3.32 13.20L3.32 7.18L2.98 6.93L0.55 7.13L0.55 7.76L1.46 7.87L1.46 13.20L0.56 13.37ZM2.34 5.71C3.01 5.71 3.44 5.32 3.44 4.63C3.44 4.02 3.07 3.64 2.44 3.64C1.81 3.64 1.32 4.02 1.32 4.68C1.32 5.31 1.75 5.71 2.34 5.71ZM5.47 14L12.50 14L12.56 11.58L11.82 11.58L11.55 13.05L8.30 13.10L8.30 5.01L9.49 4.83L9.49 4.20L5.47 4.20L5.47 4.83L6.37 5.01L6.37 13.19L5.47 13.37ZM18.82 14.14C19.29 14.14 19.73 13.90 19.73 13.90L19.73 13.26L19.70 13.26C19.24 13.26 19.00 13.13 19.00 12.66L19.00 9.27C19.00 7.94 18.35 6.86 16.32 6.86C15.01 6.86 13.92 7.31 13.92 7.31L13.92 8.13C13.92 8.13 14.84 7.91 15.48 7.91C16.74 7.91 17.16 8.40 17.16 9.37L17.16 10.12C16.76 10.12 16.25 10.14 15.72 10.21C14.07 10.40 13.27 11.20 13.27 12.42C13.27 13.37 13.92 14.17 15.32 14.17C16.13 14.17 16.79 13.80 17.37 13.31C17.54 13.76 17.91 14.14 18.82 14.14ZM16.10 12.92C15.46 12.92 15.11 12.59 15.11 12.08C15.11 11.47 15.50 11.10 16.06 10.99C16.73 10.86 17.14 10.96 17.14 10.96L17.14 11.41C17.14 12.22 17.18 12.61 17.18 12.61C17.18 12.61 16.86 12.92 16.10 12.92ZM20.89 14L24.67 14C27.55 14 29.88 12.32 29.88 8.92C29.88 6.23 28.07 4.20 24.91 4.20L20.89 4.20L20.89 4.83L21.78 5.01L21.78 13.19L20.89 13.37ZM23.72 13.10L23.72 5.10L24.39 5.10C27.17 5.10 27.87 7 27.87 9.18C27.87 11.44 27.17 13.10 24.78 13.10Z"></path></g><defs data-v-423bf9ae=""><linearGradient data-v-423bf9ae="" gradientTransform="rotate(25)" id="abcb62b6-b1b9-4b6c-b0ce-064ec5be9b17" x1="0%" y1="0%" x2="100%" y2="0%"><stop data-v-423bf9ae="" offset="0%" style="stop-color: rgb(195, 105, 192); stop-opacity: 1;"></stop><stop data-v-423bf9ae="" offset="100%" style="stop-color: rgb(113, 26, 110); stop-opacity: 1;"></stop></linearGradient></defs><g data-v-423bf9ae="" id="e99b44b5-e49c-4fdf-a764-7b59da1e99b8" transform="matrix(1.0892279730902779,0,0,1.0892279730902779,-3.2366885849533418,-0.47829585165924016)" stroke="none" fill="url(#abcb62b6-b1b9-4b6c-b0ce-064ec5be9b17)"><path d="M96.72 6.84a5.27 5.27 0 0 0-1.49-4.47 4.91 4.91 0 0 0-4-1.33C61.11 4.7 43.86 18.19 34 31.47l-4.61-.24a11.86 11.86 0 0 0-9 3.46l-7.2 7.2a.75.75 0 0 0 .24 1.22l11.48 4.76a66.25 66.25 0 0 0-3.09 10.06 3.72 3.72 0 0 0 1 3.42l13.62 13.58a3.72 3.72 0 0 0 3.42 1 66.32 66.32 0 0 0 10.06-3.09l4.76 11.48a.75.75 0 0 0 1.22.24l7.2-7.2a11.87 11.87 0 0 0 3.46-9l-.24-4.61C79.57 54 93 36.78 96.72 6.84zm-38 41.35a6.45 6.45 0 1 1 0-9.12 6.45 6.45 0 0 1 .01 9.11zm4-13.08a8.49 8.49 0 1 1 12 0 8.49 8.49 0 0 1-12.03-.01zM10.9 77.39a12.45 12.45 0 0 0-6.28-.5 1.14 1.14 0 0 1-1-.31 1.15 1.15 0 0 1-.24-1.3c2.18-4.83 8.18-14.54 18.93-6.7a.54.54 0 0 1 0 .8A11.71 11.71 0 0 0 17.83 79a.85.85 0 0 0 .82.82 11.71 11.71 0 0 0 9.6-4.37.54.54 0 0 1 .83 0c1.5 1.79 5.62 7.6 1.06 13.22a11.86 11.86 0 0 1-8 4.2c-4.45.49-12.63 1.89-16 5.74a1.15 1.15 0 0 1-2-.42C3 94.15 1.21 85.15 10.9 77.39z"></path></g><!----></svg>